<svg width="215" height="58" viewBox="0 0 215 58" fill="none" xmlns="http://www.w3.org/2000/svg">
<g filter="url(#filter0_d)">
<path fill-rule="evenodd" clip-rule="evenodd" d="M101.857 43.0439C102.602 42.6921 103.285 42.2653 103.904 41.7553C104.067 42.2025 104.323 42.6099 104.672 42.9598L104.69 42.9768C105.293 43.551 106.053 43.8071 106.895 43.8071C107.177 43.8071 107.434 43.7857 107.648 43.7678L107.662 43.7667C107.921 43.7451 108.227 43.7035 108.575 43.6456C109.057 43.5653 109.41 43.1481 109.41 42.6593V39.9058C109.41 39.3641 108.979 38.9208 108.437 38.9062C108.425 38.9059 108.414 38.9053 108.405 38.9046C108.399 38.8668 108.394 38.8135 108.394 38.7416V30.9987C108.394 28.3785 107.628 26.2053 105.998 24.6411L105.993 24.6365C104.355 23.0841 102.141 22.3667 99.4661 22.3667C96.7535 22.3667 94.1045 23.2806 91.5338 25.0138C91.1151 25.2961 90.9726 25.8464 91.2016 26.2965L92.2549 28.3662C92.3864 28.6244 92.6233 28.813 92.9045 28.883C93.1857 28.953 93.4834 28.8976 93.7206 28.7312C95.7171 27.3302 97.5153 26.6951 99.1705 26.6951C100.592 26.6951 101.541 27.0825 102.17 27.7253C102.816 28.3844 103.197 29.3303 103.197 30.6846V30.8476C102.775 30.7336 102.329 30.633 101.857 30.5498C100.867 30.3751 99.8844 30.2759 98.8933 30.2759C97.6444 30.2759 96.4739 30.4345 95.3888 30.7621C94.3334 31.0807 93.3774 31.5106 92.5465 32.1068C91.7315 32.6863 91.0696 33.4086 90.6025 34.2759C90.1278 35.1577 89.9102 36.1182 89.9102 37.1339C89.9102 38.1199 90.1043 39.0401 90.5011 39.8999L90.5054 39.9089C90.8874 40.7154 91.4029 41.4488 92.0749 42.0775C92.7378 42.6975 93.5103 43.1917 94.4067 43.5346C95.3138 43.9002 96.2718 44.0658 97.2856 44.0658C98.8825 44.0658 100.418 43.7417 101.857 43.0439ZM95.8109 38.8669C96.0858 39.1142 96.4127 39.3193 96.7941 39.4577C97.213 39.5908 97.6411 39.6635 98.1171 39.6635C99.1408 39.6635 100.057 39.4827 100.898 39.1178C101.753 38.7468 102.336 38.2909 102.727 37.7603C102.756 37.72 102.789 37.6819 102.825 37.6464C103.159 37.312 103.215 37.0901 103.215 36.9306V34.8417C101.98 34.4339 100.705 34.2347 99.3737 34.2347C97.8985 34.2347 96.8221 34.54 96.0398 35.076C95.2688 35.6043 94.9593 36.203 94.9593 36.9121C94.9593 37.3059 95.0399 37.6679 95.1887 38.0062C95.3347 38.3379 95.5461 38.6285 95.8109 38.8669Z" fill="white"/>
<path fill-rule="evenodd" clip-rule="evenodd" d="M114.369 43.3148C112.786 42.8003 111.392 42.0588 110.227 41.0775C109.842 40.753 109.758 40.1926 110.031 39.7696L111.417 37.626C111.569 37.3916 111.812 37.2312 112.087 37.1836C112.362 37.136 112.644 37.2055 112.866 37.3754C113.903 38.1711 114.947 38.7504 115.96 39.1386C116.944 39.5159 118.004 39.7007 119.131 39.7007C120.388 39.7007 121.265 39.4493 121.864 39.0569C122.401 38.6886 122.64 38.2403 122.64 37.5776C122.64 37.286 122.574 37.0969 122.476 36.9496C122.361 36.7774 122.181 36.6024 121.852 36.4242C121.487 36.2265 121.006 36.0309 120.401 35.8625C120.275 35.8286 120.149 35.794 120.02 35.7587C119.431 35.5978 118.8 35.4255 118.081 35.264C118.071 35.2617 118.06 35.2592 118.05 35.2566C116.894 34.9582 115.897 34.6763 115.061 34.4106C114.158 34.1292 113.397 33.776 112.761 33.3375C112.112 32.89 111.589 32.3364 111.258 31.6233C110.945 30.9488 110.795 30.1714 110.795 29.3173C110.795 28.2432 111.006 27.2361 111.455 26.3384C111.896 25.457 112.514 24.7295 113.296 24.1417C114.06 23.5539 114.953 23.1359 115.932 22.8504C116.917 22.5629 117.955 22.4224 119.058 22.4224C120.586 22.4224 122.036 22.6609 123.399 23.1692C124.737 23.6686 125.879 24.3367 126.828 25.1625C127.226 25.5081 127.287 26.1026 126.968 26.522L125.509 28.4438C125.34 28.6653 125.088 28.8067 124.811 28.8341C124.534 28.8615 124.258 28.7724 124.05 28.5883C123.35 27.9697 122.556 27.4998 121.698 27.192C120.8 26.8762 119.896 26.7138 118.984 26.7138C117.958 26.7138 117.171 26.9244 116.55 27.3053C116.08 27.5936 115.807 28.0354 115.807 28.8368C115.807 29.1705 115.863 29.3369 115.919 29.4369C115.976 29.5389 116.089 29.6681 116.348 29.8331C116.616 29.9924 116.986 30.1462 117.507 30.2973C118.065 30.4594 118.731 30.6395 119.506 30.8196L119.508 30.8201C120.783 31.1202 121.898 31.422 122.868 31.7264L122.873 31.7281C123.872 32.0476 124.73 32.4531 125.44 32.9128L125.452 32.9203C126.184 33.4081 126.757 34.0204 127.153 34.7192C127.157 34.7267 127.161 34.7341 127.165 34.7417C127.549 35.4616 127.745 36.3114 127.745 37.245C127.745 39.3162 126.927 41.0172 125.326 42.248C123.711 43.5162 121.64 44.066 119.187 44.066C117.546 44.066 115.949 43.8087 114.38 43.3183L114.369 43.3148Z" fill="white"/>
<path fill-rule="evenodd" clip-rule="evenodd" d="M131.402 46.8706H131.366C130.847 46.8706 130.415 47.2669 130.369 47.7834C130.359 47.9068 130.371 48.0274 130.402 48.1406V50.7164C130.402 51.1851 130.728 51.5909 131.186 51.6926C131.524 51.7679 131.876 51.8363 132.169 51.8608L132.185 51.8621C132.397 51.8798 132.654 51.9012 132.918 51.9012C134.45 51.9012 135.773 51.553 136.801 50.7159L136.81 50.7085C137.69 49.9759 138.378 49.105 138.783 48.0687L148.006 24.1142C148.125 23.8067 148.084 23.4606 147.897 23.1889C147.711 22.9172 147.403 22.7549 147.073 22.7549H144.024C143.604 22.7549 143.229 23.0169 143.085 23.411L138.086 37.0609L132.589 23.382C132.437 23.0031 132.07 22.7549 131.661 22.7549H128.316C127.981 22.7549 127.668 22.9231 127.483 23.2028C127.297 23.4825 127.265 23.8364 127.396 24.1452L135.274 42.7263L135.089 43.1919C134.798 43.9232 134.558 44.5268 134.347 45.0159C134.344 45.0216 134.342 45.0274 134.34 45.0331C134.338 45.0373 134.336 45.0415 134.335 45.0456C134.078 45.6966 133.822 46.1893 133.62 46.5429C133.538 46.6864 133.462 46.7891 133.401 46.8581C133.337 46.9291 133.301 46.9514 133.301 46.9514C133.235 46.9899 133.151 47.0184 133.029 47.0184C132.937 47.0184 132.817 47.0109 132.627 46.999C132.552 46.9944 132.465 46.989 132.367 46.9832C132.137 46.9697 131.908 46.9449 131.677 46.9088C131.59 46.8839 131.498 46.8706 131.402 46.8706Z" fill="white"/>
<path fill-rule="evenodd" clip-rule="evenodd" d="M152.125 43.3148C150.542 42.8003 149.148 42.0588 147.983 41.0775C147.598 40.753 147.514 40.1926 147.787 39.7696L149.173 37.626C149.325 37.3916 149.567 37.2312 149.842 37.1836C150.117 37.136 150.4 37.2055 150.621 37.3754C151.659 38.1711 152.703 38.7504 153.716 39.1386C154.7 39.5159 155.76 39.7007 156.887 39.7007C158.144 39.7007 159.021 39.4493 159.62 39.0569C160.157 38.6886 160.396 38.2403 160.396 37.5776C160.396 37.2861 160.33 37.0969 160.232 36.9496C160.117 36.7774 159.937 36.6024 159.608 36.4242C159.243 36.2265 158.762 36.0309 158.157 35.8625C158.031 35.8286 157.904 35.794 157.775 35.7587C157.187 35.5978 156.556 35.4255 155.837 35.264C155.826 35.2617 155.816 35.2592 155.806 35.2566C154.65 34.9582 153.653 34.6763 152.817 34.4106C151.914 34.1292 151.153 33.776 150.517 33.3375C149.868 32.89 149.345 32.3364 149.014 31.6233C148.7 30.9488 148.551 30.1714 148.551 29.3173C148.551 28.2432 148.762 27.2361 149.211 26.3384C149.652 25.457 150.27 24.7295 151.052 24.1417C151.816 23.5539 152.709 23.1359 153.688 22.8504C154.673 22.5629 155.711 22.4224 156.813 22.4224C158.342 22.4224 159.792 22.6609 161.155 23.1692C162.493 23.6686 163.635 24.3367 164.584 25.1625C164.982 25.5081 165.043 26.1026 164.724 26.522L163.264 28.4438C163.096 28.6653 162.843 28.8067 162.567 28.8341C162.29 28.8615 162.014 28.7724 161.806 28.5883C161.106 27.9697 160.311 27.4998 159.454 27.192C158.555 26.8762 157.652 26.7138 156.739 26.7138C155.714 26.7138 154.927 26.9244 154.306 27.3053C153.836 27.5936 153.563 28.0354 153.563 28.8368C153.563 29.1705 153.619 29.3369 153.675 29.4369C153.732 29.5389 153.845 29.6681 154.104 29.8331C154.372 29.9924 154.742 30.1462 155.263 30.2973C155.821 30.4594 156.487 30.6395 157.262 30.8196L157.264 30.8201C158.539 31.1202 159.654 31.422 160.624 31.7264L160.629 31.7281C161.628 32.0476 162.486 32.4531 163.196 32.9128L163.208 32.9203C163.939 33.4081 164.513 34.0204 164.909 34.7192C164.913 34.7267 164.917 34.7341 164.921 34.7417C165.305 35.4616 165.501 36.3114 165.501 37.245C165.501 39.3162 164.683 41.0172 163.082 42.248C161.467 43.5162 159.396 44.066 156.943 44.066C155.302 44.066 153.705 43.8087 152.135 43.3183L152.125 43.3148Z" fill="#FFB661"/>
<path fill-rule="evenodd" clip-rule="evenodd" d="M181.212 37.2002C181.082 37.5373 180.868 37.8682 180.579 38.173C180.252 38.4985 179.909 38.7639 179.534 38.9666C179.1 39.1914 178.643 39.3712 178.144 39.5212C177.693 39.6564 177.218 39.7192 176.731 39.7192C176.038 39.7192 175.395 39.5818 174.775 39.3184C174.15 39.0528 173.588 38.678 173.102 38.2081L173.091 38.1972C172.606 37.7432 172.215 37.1881 171.891 36.5099C171.728 36.1475 171.596 35.7582 171.499 35.3438H186.063C186.561 35.3438 186.983 34.9779 187.053 34.4852C187.075 34.3314 187.095 34.1456 187.115 33.913C187.137 33.6644 187.137 33.3691 187.137 33.131L187.137 33.1057C187.137 31.7091 186.893 30.3891 186.408 29.0956L186.406 29.0907C185.921 27.8166 185.227 26.6693 184.302 25.6808C183.389 24.6864 182.279 23.9103 180.99 23.3259C179.676 22.7216 178.219 22.4409 176.675 22.4409C175.13 22.4409 173.679 22.7224 172.357 23.3009C171.051 23.8721 169.93 24.6682 168.976 25.6425L168.968 25.6503C168.024 26.636 167.292 27.7988 166.768 29.0888L166.763 29.1014C166.255 30.4011 165.992 31.7812 165.992 33.235C165.992 34.6779 166.233 36.0599 166.763 37.3885C167.271 38.7066 168.006 39.872 168.95 40.8567C169.89 41.8378 171.015 42.6352 172.32 43.2061C173.642 43.7846 175.093 44.0661 176.638 44.0661C177.659 44.0661 178.643 43.946 179.569 43.7245C179.58 43.7218 179.592 43.7189 179.603 43.7158C180.55 43.4539 181.426 43.0884 182.228 42.6155L182.238 42.6096C183.022 42.1352 183.716 41.5618 184.324 40.9342C184.964 40.2727 185.453 39.5272 185.812 38.7252C185.931 38.459 185.928 38.154 185.803 37.8902C185.679 37.6264 185.445 37.4301 185.164 37.3527L182.411 36.5951C181.915 36.4587 181.397 36.7204 181.212 37.2002ZM174.637 27.1814L174.656 27.1735C175.282 26.9138 175.946 26.7878 176.675 26.7878C177.385 26.7878 178.053 26.9249 178.7 27.176C179.346 27.4518 179.902 27.7973 180.372 28.2367C180.853 28.6865 181.26 29.2323 181.577 29.881C181.739 30.2209 181.868 30.5741 181.963 30.9415H171.449C171.54 30.5708 171.661 30.2226 171.815 29.89C172.116 29.2579 172.508 28.7113 172.991 28.2435C173.473 27.7772 174.008 27.4266 174.637 27.1814Z" fill="white"/>
<path fill-rule="evenodd" clip-rule="evenodd" d="M83.2198 37.2002C83.0902 37.5373 82.8755 37.8682 82.5872 38.173C82.2602 38.4985 81.9168 38.7639 81.5421 38.9666C81.1075 39.1914 80.6512 39.3712 80.1514 39.5212C79.7008 39.6564 79.2258 39.7192 78.7387 39.7192C78.0459 39.7192 77.4025 39.5818 76.7829 39.3184C76.1579 39.0528 75.5955 38.678 75.1099 38.2081L75.0984 38.1972C74.6142 37.7432 74.2227 37.1881 73.8987 36.5099C73.7354 36.1475 73.6035 35.7582 73.5069 35.3438H88.0708C88.5685 35.3438 88.9904 34.9779 89.0607 34.4852C89.0827 34.3314 89.103 34.1456 89.1225 33.913C89.1448 33.6644 89.1448 33.3691 89.1447 33.131L89.1447 33.1057C89.1447 31.7091 88.9008 30.3891 88.4158 29.0956L88.4139 29.0907C87.9285 27.8166 87.2351 26.6693 86.3094 25.6808C85.3968 24.6864 84.2867 23.9103 82.9979 23.3259C81.6838 22.7216 80.2264 22.4409 78.6832 22.4409C77.1375 22.4409 75.687 22.7224 74.3648 23.3009C73.0592 23.8721 71.9374 24.6682 70.9834 25.6425L70.976 25.6503C70.0314 26.636 69.2997 27.7988 68.7757 29.0888L68.7708 29.1014C68.2631 30.4011 68 31.7812 68 33.235C68 34.6779 68.2408 36.0599 68.7713 37.3885C69.2791 38.7066 70.0138 39.872 70.9575 40.8567C71.8977 41.8378 73.0229 42.6352 74.3278 43.2061C75.6501 43.7846 77.1006 44.0661 78.6463 44.0661C79.6671 44.0661 80.6507 43.946 81.5768 43.7245C81.5882 43.7218 81.5996 43.7189 81.6109 43.7158C82.5575 43.4539 83.4342 43.0884 84.2361 42.6155L84.2459 42.6096C85.0296 42.1352 85.7243 41.5618 86.3316 40.9342C86.9718 40.2727 87.4606 39.5272 87.8194 38.7252C87.9385 38.459 87.9354 38.154 87.811 37.8902C87.6865 37.6264 87.4531 37.4301 87.1719 37.3527L84.4184 36.5951C83.9227 36.4587 83.4044 36.7204 83.2198 37.2002ZM76.6444 27.1814L76.6639 27.1735C77.2903 26.9138 77.9535 26.7878 78.6832 26.7878C79.3932 26.7878 80.0604 26.9249 80.7082 27.176C81.3536 27.4518 81.9101 27.7973 82.3797 28.2367C82.8605 28.6865 83.268 29.2323 83.585 29.881C83.7465 30.2209 83.8754 30.5741 83.9713 30.9415H73.457C73.5475 30.5708 73.6692 30.2226 73.823 29.89C74.1238 29.2579 74.5156 28.7113 74.999 28.2435C75.4808 27.7772 76.0159 27.4266 76.6444 27.1814Z" fill="#FFB661"/>
<path fill-rule="evenodd" clip-rule="evenodd" d="M189.779 15.1782C189.227 15.1782 188.779 15.6259 188.779 16.1782C188.779 16.244 188.786 16.3083 188.798 16.3705V38.9449C188.798 40.391 189.207 41.6567 190.167 42.5949C191.102 43.5266 192.36 43.9365 193.789 43.9365C194.425 43.9365 195.137 43.8528 195.9 43.6968C196.679 43.5563 197.373 43.3535 197.978 43.1028C198.42 42.9202 198.67 42.451 198.577 41.9827L198.059 39.3956C198.001 39.1025 197.814 38.851 197.551 38.71C197.287 38.569 196.974 38.5532 196.698 38.667C196.454 38.7673 196.18 38.8456 195.82 38.9357C195.517 39.0114 195.285 39.0352 195.12 39.0352C194.614 39.0352 194.391 38.9031 194.271 38.7712L194.255 38.7542C194.114 38.6064 193.976 38.331 193.976 37.7992V16.1782C193.976 15.6259 193.529 15.1782 192.976 15.1782H189.779Z" fill="white"/>
<path fill-rule="evenodd" clip-rule="evenodd" d="M200.182 15.1782C199.629 15.1782 199.182 15.6259 199.182 16.1782C199.182 16.244 199.188 16.3083 199.2 16.3705V38.9449C199.2 40.391 199.609 41.6567 200.569 42.5949C201.504 43.5266 202.762 43.9365 204.192 43.9365C204.827 43.9365 205.539 43.8528 206.302 43.6968C207.081 43.5563 207.775 43.3535 208.381 43.1028C208.822 42.9202 209.073 42.451 208.979 41.9827L208.462 39.3956C208.403 39.1025 208.216 38.8511 207.953 38.71C207.689 38.569 207.377 38.5532 207.1 38.667C206.857 38.7673 206.583 38.8456 206.222 38.9357C205.92 39.0114 205.687 39.0352 205.522 39.0352C205.016 39.0352 204.793 38.9031 204.673 38.7712L204.657 38.7542C204.516 38.6064 204.379 38.331 204.379 37.7992V16.1782C204.379 15.6259 203.931 15.1782 203.379 15.1782H200.182Z" fill="white"/>
<path d="M33 35H20V48H33V35Z" fill="#61A6F2"/>
<mask id="mask0" mask-type="alpha" maskUnits="userSpaceOnUse" x="6" y="21" width="27" height="27">
<circle cx="19.5" cy="34.5" r="13.5" fill="#C4C4C4"/>
</mask>
<g mask="url(#mask0)">
<path d="M20 21H6V35H20V21Z" fill="#CCE4FF"/>
<path d="M33 21H20V35H33V21Z" fill="#80BCFF"/>
<path d="M20 35H6V48H20V35Z" fill="#99C9FF"/>
</g>
<mask id="mask1" mask-type="alpha" maskUnits="userSpaceOnUse" x="18" y="6" width="29" height="29">
<circle cx="32.5" cy="20.5" r="14.5" fill="#C4C4C4"/>
</mask>
<g mask="url(#mask1)">
<path d="M33.037 6H18V21.037H33.037V6Z" fill="#CCEEFF"/>
<path d="M47.0001 6H33.0371V21.037H47.0001V6Z" fill="#80D4FF"/>
<path d="M33.037 21.0371H18V35.0001H33.037V21.0371Z" fill="#99DDFF"/>
<path d="M47.0001 21.0371H33.0371V35.0001H47.0001V21.0371Z" fill="#61C2F2"/>
</g>
<path d="M47 35H33V48H47V35Z" fill="#99C9FF"/>
<mask id="mask2" mask-type="alpha" maskUnits="userSpaceOnUse" x="33" y="21" width="27" height="27">
<circle cx="46.5" cy="34.5" r="13.5" fill="#C4C4C4"/>
</mask>
<g mask="url(#mask2)">
<path d="M47 21H33V35H47V21Z" fill="#CCE4FF"/>
<path d="M60 21H47V35H60V21Z" fill="#80BCFF"/>
<path d="M60 35H47V48H60V35Z" fill="#61A6F2"/>
</g>
<path fill-rule="evenodd" clip-rule="evenodd" d="M25 14C25 18.4698 28.4139 22 32.5 22C36.5861 22 40 18.4698 40 14H42C42 19.4651 37.7968 24 32.5 24C27.2032 24 23 19.4651 23 14H25Z" fill="white"/>
</g>
<defs>
<filter id="filter0_d" x="2.00272e-05" y="2.00272e-05" width="214.998" height="57.9012" filterUnits="userSpaceOnUse" color-interpolation-filters="sRGB">
<feFlood flood-opacity="0" result="BackgroundImageFix"/>
<feColorMatrix in="SourceAlpha" type="matrix" values="0 0 0 0 0 0 0 0 0 0 0 0 0 0 0 0 0 0 127 0"/>
<feOffset/>
<feGaussianBlur stdDeviation="2.99999"/>
<feColorMatrix type="matrix" values="0 0 0 0 0.117951 0 0 0 0 0.375069 0 0 0 0 0.658333 0 0 0 0.5 0"/>
<feBlend mode="normal" in2="BackgroundImageFix" result="effect1_dropShadow"/>
<feBlend mode="normal" in="SourceGraphic" in2="effect1_dropShadow" result="shape"/>
</filter>
</defs>
</svg>
