<svg width="224" height="50" viewBox="0 0 224 50" fill="none" xmlns="http://www.w3.org/2000/svg">
<path d="M81.3142 41.2752C79.7362 41.2752 78.2813 40.9871 76.9698 40.4109C75.6583 39.8347 74.5312 39.0322 73.5886 38.0444C72.6459 37.0567 71.9082 35.8838 71.3959 34.5462C70.8631 33.2086 70.6172 31.8093 70.6172 30.3277C70.6172 28.8461 70.8836 27.4468 71.3959 26.1299C71.9287 24.8129 72.6664 23.6399 73.6091 22.6522C74.5722 21.6645 75.6993 20.8619 77.0108 20.2857C78.3223 19.7096 79.7772 19.4215 81.3551 19.4215C82.933 19.4215 84.388 19.7096 85.679 20.3063C86.9905 20.9031 88.0971 21.685 88.9988 22.6728C89.9209 23.6605 90.6176 24.8129 91.1095 26.1093C91.6013 27.4263 91.8472 28.7638 91.8472 30.1837C91.8472 30.4718 91.8472 30.7599 91.8267 30.9862C91.8062 31.2332 91.7857 31.4184 91.7652 31.5624H74.3263C74.4083 32.6119 74.6542 33.579 75.0435 34.4433C75.4534 35.3076 75.9657 36.0484 76.6214 36.6657C77.2567 37.2831 77.9944 37.7769 78.8141 38.1267C79.6338 38.4766 80.4945 38.6618 81.4166 38.6618C82.0519 38.6618 82.6871 38.5795 83.3019 38.3943C83.9167 38.2091 84.4905 37.9827 85.0437 37.6946C85.5765 37.4065 86.0479 37.0361 86.4782 36.604C86.8881 36.1718 87.2159 35.678 87.4208 35.143L90.4742 35.9866C90.1258 36.7686 89.6545 37.4888 89.0397 38.1267C88.425 38.7647 87.7282 39.3408 86.9495 39.8141C86.1503 40.2874 85.2692 40.6578 84.306 40.9253C83.3634 41.1517 82.3593 41.2752 81.3142 41.2752ZM88.5274 28.8873C88.4455 27.8996 88.1996 26.9735 87.7897 26.1093C87.3799 25.2656 86.8471 24.5454 86.2118 23.9486C85.5766 23.3518 84.8388 22.8991 84.0191 22.5493C83.179 22.2201 82.2978 22.0349 81.3551 22.0349C80.4125 22.0349 79.5313 22.1995 78.6911 22.5493C77.851 22.8786 77.1337 23.3518 76.4985 23.9692C75.8632 24.5865 75.3509 25.3067 74.9615 26.1299C74.5722 26.9735 74.3468 27.879 74.2648 28.8873H88.5274Z" fill="#FFB661"/>
<path d="M101.228 41.2748C100.224 41.2748 99.3018 41.1102 98.4411 40.7604C97.5804 40.4311 96.8427 39.9578 96.2074 39.3611C95.5722 38.7643 95.0804 38.0647 94.7115 37.2827C94.3426 36.4802 94.1582 35.6159 94.1582 34.6693C94.1582 33.7022 94.3631 32.8173 94.7935 32.0148C95.2238 31.2123 95.8386 30.5332 96.6173 29.9776C97.4165 29.4014 98.3591 28.9693 99.4452 28.64C100.531 28.3108 101.72 28.1462 103.011 28.1462C104.035 28.1462 105.06 28.249 106.105 28.4342C107.15 28.6194 108.072 28.887 108.892 29.1956V27.4877C108.892 25.7591 108.4 24.401 107.437 23.4133C106.474 22.4255 105.101 21.9316 103.318 21.9316C101.187 21.9316 98.9739 22.7548 96.6378 24.401L95.4697 22.0963C98.1747 20.2648 100.9 19.3388 103.646 19.3388C106.413 19.3388 108.564 20.0796 110.122 21.5612C111.659 23.0429 112.437 25.1418 112.437 27.8375V36.4596C112.437 37.3033 112.806 37.7354 113.564 37.756V40.8221C113.196 40.8838 112.888 40.925 112.642 40.9456C112.396 40.9662 112.15 40.9867 111.884 40.9867C111.187 40.9867 110.634 40.781 110.204 40.3694C109.794 39.9578 109.548 39.4434 109.466 38.8466L109.384 37.3445C108.441 38.6203 107.253 39.5669 105.818 40.2459C104.384 40.9456 102.847 41.2748 101.228 41.2748ZM102.15 38.5997C103.421 38.5997 104.589 38.3733 105.675 37.9001C106.761 37.4268 107.581 36.8094 108.154 36.0275C108.667 35.513 108.913 34.9986 108.913 34.443V31.3357C107.191 30.6567 105.408 30.3274 103.544 30.3274C101.761 30.3274 100.326 30.6978 99.2198 31.4592C98.1132 32.2206 97.5394 33.2083 97.5394 34.4224C97.5394 35.0192 97.6624 35.5748 97.8878 36.0892C98.1132 36.6037 98.4411 37.0564 98.8509 37.4268C99.2608 37.7972 99.7526 38.1058 100.326 38.3116C100.9 38.4968 101.494 38.5997 102.15 38.5997Z" fill="white"/>
<path d="M125.513 41.2751C123.812 41.2751 122.152 41.0076 120.512 40.4931C118.873 39.9581 117.459 39.1967 116.291 38.209L117.828 35.8219C119.057 36.7685 120.307 37.4682 121.537 37.9415C122.767 38.4148 124.078 38.6411 125.451 38.6411C126.988 38.6411 128.197 38.3324 129.099 37.7357C130 37.1183 130.451 36.2747 130.451 35.1635C130.451 34.649 130.328 34.2169 130.082 33.8465C129.836 33.4761 129.488 33.1674 128.996 32.8999C128.504 32.6324 127.89 32.3854 127.152 32.1797C126.394 31.9739 125.533 31.727 124.529 31.5006C123.258 31.1713 122.172 30.8627 121.271 30.5746C120.348 30.2865 119.611 29.9367 119.016 29.5251C118.422 29.1136 117.992 28.6403 117.725 28.0641C117.459 27.4879 117.316 26.7883 117.316 25.9652C117.316 24.9157 117.521 23.9691 117.93 23.146C118.34 22.3229 118.914 21.6438 119.652 21.0882C120.369 20.5326 121.23 20.121 122.213 19.833C123.197 19.5449 124.242 19.4008 125.369 19.4008C126.947 19.4008 128.422 19.6478 129.795 20.1622C131.168 20.6766 132.316 21.3557 133.259 22.1788L131.64 24.3189C130.759 23.537 129.754 22.9402 128.668 22.5492C127.562 22.1582 126.435 21.9525 125.287 21.9525C123.996 21.9525 122.91 22.22 122.008 22.7756C121.107 23.3312 120.656 24.216 120.656 25.4301C120.656 25.924 120.738 26.315 120.922 26.6442C121.107 26.9735 121.394 27.241 121.783 27.4879C122.193 27.7348 122.705 27.9406 123.34 28.1258C123.976 28.311 124.734 28.5168 125.615 28.7226C127.008 29.0518 128.218 29.3811 129.263 29.7103C130.287 30.0396 131.148 30.4511 131.845 30.9038C132.521 31.3565 133.033 31.9122 133.382 32.5295C133.709 33.1468 133.894 33.9082 133.894 34.7931C133.894 36.7685 133.136 38.3324 131.64 39.4848C130.103 40.6989 128.074 41.2751 125.513 41.2751Z" fill="white"/>
<path d="M139.022 46.6252C139.37 46.6869 139.719 46.7281 140.067 46.7487C140.415 46.7692 140.682 46.7898 140.866 46.7898C141.194 46.7898 141.481 46.7075 141.727 46.5635C141.973 46.4194 142.239 46.1313 142.485 45.6992C142.731 45.267 143.038 44.6703 143.346 43.8883C143.674 43.1269 144.063 42.1186 144.555 40.884L135.641 19.7711H139.35L146.522 37.6944L153.059 19.7711H156.44L146.215 46.44C145.846 47.3866 145.211 48.2097 144.35 48.9299C143.469 49.6501 142.28 49.9999 140.743 49.9999C140.497 49.9999 140.251 49.9794 140.005 49.9588C139.76 49.9382 139.432 49.8765 139.063 49.7942V46.6252H139.022Z" fill="white"/>
<path d="M167.384 41.2751C165.683 41.2751 164.023 41.0076 162.384 40.4931C160.744 39.9581 159.33 39.1967 158.162 38.209L159.699 35.8219C160.929 36.7685 162.179 37.4682 163.408 37.9415C164.638 38.4148 165.949 38.6411 167.322 38.6411C168.859 38.6411 170.068 38.3324 170.97 37.7357C171.871 37.1183 172.322 36.2747 172.322 35.1635C172.322 34.649 172.199 34.2169 171.953 33.8465C171.707 33.4761 171.359 33.1674 170.867 32.8999C170.376 32.6324 169.761 32.3854 169.023 32.1797C168.265 31.9739 167.404 31.727 166.4 31.5006C165.129 31.1713 164.043 30.8627 163.142 30.5746C162.22 30.2865 161.482 29.9367 160.888 29.5251C160.293 29.1136 159.863 28.6403 159.597 28.0641C159.33 27.4879 159.187 26.7883 159.187 25.9652C159.187 24.9157 159.392 23.9691 159.801 23.146C160.211 22.3229 160.785 21.6438 161.523 21.0882C162.24 20.5326 163.101 20.121 164.084 19.833C165.068 19.5449 166.113 19.4008 167.24 19.4008C168.818 19.4008 170.294 19.6478 171.667 20.1622C173.04 20.6766 174.187 21.3557 175.13 22.1788L173.511 24.3189C172.63 23.537 171.626 22.9402 170.539 22.5492C169.433 22.1582 168.306 21.9525 167.158 21.9525C165.867 21.9525 164.781 22.22 163.879 22.7756C162.978 23.3312 162.527 24.216 162.527 25.4301C162.527 25.924 162.609 26.315 162.793 26.6442C162.978 26.9735 163.265 27.241 163.654 27.4879C164.064 27.7348 164.576 27.9406 165.211 28.1258C165.847 28.311 166.605 28.5168 167.486 28.7226C168.88 29.0518 170.089 29.3811 171.134 29.7103C172.158 30.0396 173.019 30.4511 173.716 30.9038C174.392 31.3565 174.904 31.9122 175.253 32.5295C175.581 33.1468 175.765 33.9082 175.765 34.7931C175.765 36.7685 175.007 38.3324 173.511 39.4848C171.974 40.6989 169.945 41.2751 167.384 41.2751Z" fill="#FFB661"/>
<path d="M189.222 41.2752C187.644 41.2752 186.19 40.9871 184.878 40.4109C183.566 39.8347 182.439 39.0322 181.497 38.0444C180.554 37.0567 179.816 35.8838 179.304 34.5462C178.771 33.2086 178.525 31.8093 178.525 30.3277C178.525 28.8461 178.792 27.4468 179.304 26.1299C179.837 24.8129 180.575 23.6399 181.517 22.6522C182.48 21.6645 183.607 20.8619 184.919 20.2857C186.23 19.7096 187.685 19.4215 189.263 19.4215C190.841 19.4215 192.296 19.7096 193.587 20.3063C194.899 20.9031 196.005 21.685 196.907 22.6728C197.829 23.6605 198.526 24.8129 199.018 26.1093C199.509 27.4263 199.755 28.7638 199.755 30.1837C199.755 30.4718 199.755 30.7599 199.735 30.9862C199.714 31.2332 199.694 31.4184 199.673 31.5624H182.234C182.316 32.6119 182.562 33.579 182.952 34.4433C183.362 35.3076 183.874 36.0484 184.53 36.6657C185.165 37.2831 185.903 37.7769 186.722 38.1267C187.542 38.4766 188.403 38.6618 189.325 38.6618C189.96 38.6618 190.595 38.5795 191.21 38.3943C191.825 38.2091 192.399 37.9827 192.952 37.6946C193.485 37.4065 193.956 37.0361 194.386 36.604C194.796 36.1718 195.124 35.678 195.329 35.143L198.382 35.9866C198.034 36.7686 197.563 37.4888 196.948 38.1267C196.333 38.7647 195.636 39.3408 194.858 39.8141C194.059 40.2874 193.177 40.6578 192.214 40.9253C191.272 41.1517 190.267 41.2752 189.222 41.2752ZM196.436 28.8873C196.354 27.8996 196.108 26.9735 195.698 26.1093C195.288 25.2656 194.755 24.5454 194.12 23.9486C193.485 23.3518 192.747 22.8991 191.927 22.5493C191.087 22.2201 190.206 22.0349 189.263 22.0349C188.321 22.0349 187.44 22.1995 186.599 22.5493C185.759 22.8786 185.042 23.3518 184.407 23.9692C183.771 24.5865 183.259 25.3067 182.87 26.1299C182.48 26.9735 182.255 27.879 182.173 28.8873H196.436Z" fill="white"/>
<path d="M203.797 11.3341H207.342V35.4102C207.342 36.1922 207.547 36.8095 207.957 37.2416C208.367 37.6943 208.961 37.9001 209.719 37.9001C210.006 37.9001 210.354 37.859 210.764 37.7561C211.174 37.6532 211.543 37.5503 211.891 37.4062L212.465 40.2871C211.871 40.5341 211.174 40.7399 210.375 40.8839C209.576 41.0485 208.858 41.1308 208.244 41.1308C206.871 41.1308 205.785 40.7399 205.006 39.9579C204.207 39.1759 203.817 38.0853 203.817 36.686V11.3341H203.797Z" fill="white"/>
<path d="M215.332 11.3341H218.877V35.4102C218.877 36.1922 219.082 36.8095 219.492 37.2416C219.902 37.6943 220.496 37.9001 221.254 37.9001C221.541 37.9001 221.89 37.859 222.299 37.7561C222.709 37.6532 223.078 37.5503 223.426 37.4062L224 40.2871C223.406 40.5341 222.709 40.7399 221.91 40.8839C221.111 41.0485 220.394 41.1308 219.779 41.1308C218.406 41.1308 217.32 40.7399 216.541 39.9579C215.742 39.1759 215.353 38.0853 215.353 36.686V11.3341H215.332Z" fill="white"/>
<path d="M29.9414 32.293H15.5254V46.7692H29.9414V32.293Z" fill="#61A6F2"/>
<mask id="mask0" mask-type="alpha" maskUnits="userSpaceOnUse" x="0" y="16" width="30" height="31">
<ellipse cx="14.9704" cy="31.7363" rx="14.9704" ry="15.033" fill="#C4C4C4"/>
</mask>
<g mask="url(#mask0)">
<path d="M15.5249 16.7033H0V32.293H15.5249V16.7033Z" fill="#CCE4FF"/>
<path d="M29.9414 16.7032H15.5254V32.2929H29.9414V16.7032Z" fill="#80BCFF"/>
<path d="M15.5249 32.293H0V46.7691H15.5249V32.293Z" fill="#99C9FF"/>
</g>
<mask id="mask1" mask-type="alpha" maskUnits="userSpaceOnUse" x="13" y="0" width="33" height="33">
<ellipse cx="29.386" cy="16.1465" rx="16.0794" ry="16.1465" fill="#C4C4C4"/>
</mask>
<g mask="url(#mask1)">
<path d="M29.9815 0H13.3066V16.7445H29.9815V0Z" fill="#CCEEFF"/>
<path d="M45.4643 0H29.9805V16.7445H45.4643V0Z" fill="#80D4FF"/>
<path d="M29.9815 16.7446H13.3066V32.2931H29.9815V16.7446Z" fill="#99DDFF"/>
<path d="M45.4643 16.7446H29.9805V32.2931H45.4643V16.7446Z" fill="#61C2F2"/>
</g>
<path d="M45.4663 32.293H29.9414V46.7692H45.4663V32.293Z" fill="#99C9FF"/>
<mask id="mask2" mask-type="alpha" maskUnits="userSpaceOnUse" x="29" y="16" width="31" height="31">
<ellipse cx="44.9099" cy="31.7363" rx="14.9704" ry="15.033" fill="#C4C4C4"/>
</mask>
<g mask="url(#mask2)">
<path d="M45.4644 16.7032H29.9395V32.293H45.4644V16.7032Z" fill="#CCE4FF"/>
<path d="M59.8828 16.7032H45.4668V32.2929H59.8828V16.7032Z" fill="#80BCFF"/>
<path d="M59.8808 32.293H45.4648V46.7691H59.8808V32.293Z" fill="#61A6F2"/>
</g>
<path fill-rule="evenodd" clip-rule="evenodd" d="M21.0694 8.90842C21.0694 13.8858 24.8551 17.8168 29.3863 17.8168C33.9175 17.8168 37.7032 13.8858 37.7032 8.90842H39.9211C39.9211 14.9941 35.2601 20.0439 29.3863 20.0439C23.5125 20.0439 18.8516 14.9941 18.8516 8.90842H21.0694Z" fill="white"/>
</svg>
