<svg width="8" height="6" viewBox="0 0 8 6" fill="none" xmlns="http://www.w3.org/2000/svg">
<path opacity="0.5" d="M3.68784 0.635756L0.127804 4.42315C0.045398 4.51075 -3.813e-08 4.62769 -3.26798e-08 4.75237C-2.72296e-08 4.87706 0.045398 4.99399 0.127804 5.08159L0.389915 5.36051C0.560711 5.542 0.838302 5.542 1.00884 5.36051L3.99834 2.18014L6.99116 5.36404C7.07357 5.45163 7.18342 5.5 7.30056 5.5C7.41783 5.5 7.52768 5.45163 7.61015 5.36404L7.8722 5.08512C7.9546 4.99745 8 4.88059 8 4.7559C8 4.63122 7.9546 4.51428 7.8722 4.42668L4.30891 0.635756C4.22624 0.547951 4.11587 0.499724 3.99854 0.500001C3.88075 0.499724 3.77044 0.547951 3.68784 0.635756Z" fill="#7E7E7E"/>
</svg>
