<svg width="35" height="35" viewBox="0 0 35 35" fill="none" xmlns="http://www.w3.org/2000/svg">
<path fill-rule="evenodd" clip-rule="evenodd" d="M17.5 35C27.165 35 35 27.165 35 17.5C35 7.83502 27.165 0 17.5 0C7.83502 0 0 7.83502 0 17.5C0 27.165 7.83502 35 17.5 35ZM25.4722 13.1226C23.9546 14.0791 23.2031 15.3764 23.2129 17.0978C23.2129 17.1002 23.2128 17.1046 23.2126 17.111C23.2065 17.3371 23.1353 20.0044 26 21.4061C25.4504 23.1325 23.5631 26.9664 21.367 26.9992C20.7519 26.9992 20.2601 26.8025 19.7531 26.5997C19.2136 26.3839 18.6568 26.1612 17.9159 26.1612C17.1148 26.1612 16.5116 26.3982 15.9464 26.6202C15.4665 26.8087 15.0142 26.9864 14.4916 26.9992C12.3149 27.0673 10.2282 22.8498 9.64936 21.1285C9.21645 19.8211 9 18.5516 9 17.3224C9 13.1629 11.6777 11.1186 14.1973 11.0782C14.8967 11.0782 15.7047 11.3814 16.3949 11.6403C16.9095 11.8334 17.3585 12.0019 17.6484 12.0019C17.8826 12.0019 18.2649 11.8554 18.7338 11.6757C19.55 11.3628 20.6287 10.9494 21.6466 11.0327C23.3393 11.1665 24.6235 11.8606 25.4722 13.1226ZM21.7423 6.01135C21.7796 6.518 21.8806 7.89175 20.6568 9.39975C19.7715 10.4724 18.6966 11.1009 17.5195 11.0075C17.4197 9.71272 17.8843 8.56432 18.6747 7.63551C19.3921 6.7698 20.6519 6.06562 21.7415 6L21.7423 6.01135Z" fill="#BBDBFE"/>
</svg>
