<svg width="35" height="35" viewBox="0 0 35 35" fill="none" xmlns="http://www.w3.org/2000/svg">
<circle cx="17.5" cy="17.5" r="17.5" fill="white"/>
<path d="M23.2129 17.0978C23.2031 15.3764 23.9546 14.0791 25.4722 13.1226C24.6235 11.8606 23.3393 11.1665 21.6466 11.0327C20.0439 10.9015 18.2904 12.0019 17.6484 12.0019C16.9698 12.0019 15.4182 11.0782 14.1973 11.0782C11.6777 11.1186 9 13.1629 9 17.3224C9 18.5516 9.21645 19.8211 9.64936 21.1285C10.2282 22.8498 12.3149 27.0673 14.4916 26.9992C15.6298 26.9714 16.4348 26.1612 17.9159 26.1612C19.3532 26.1612 20.0974 26.9992 21.367 26.9992C23.5631 26.9664 25.4504 23.1325 26 21.4061C23.0548 19.965 23.2129 17.1861 23.2129 17.0978ZM20.6568 9.39975C21.8898 7.88034 21.778 6.49722 21.7415 6C20.6519 6.06562 19.3921 6.7698 18.6747 7.63551C17.8843 8.56432 17.4197 9.71272 17.5195 11.0075C18.6966 11.1009 19.7715 10.4724 20.6568 9.39975Z" fill="black"/>
</svg>
