<svg width="6" height="12" viewBox="0 0 6 12" fill="none" xmlns="http://www.w3.org/2000/svg">
<path d="M0.162909 6.42922L4.70779 11.3243C4.8129 11.4376 4.95323 11.5 5.10285 11.5C5.25247 11.5 5.39279 11.4376 5.49791 11.3243L5.83261 10.9639C6.0504 10.729 6.0504 10.3473 5.83261 10.1128L2.01616 6.00228L5.83684 1.88715C5.94196 1.77384 6 1.6228 6 1.46173C6 1.30049 5.94196 1.14944 5.83684 1.03604L5.50215 0.67573C5.39695 0.562422 5.25671 0.5 5.10708 0.5C4.95746 0.5 4.81714 0.562422 4.71202 0.67573L0.162909 5.57525C0.0575425 5.68892 -0.000329774 5.84068 2.08512e-06 6.00201C-0.000329813 6.16397 0.0575425 6.31564 0.162909 6.42922Z" fill="#5893D4"/>
</svg>
