<svg width="22" height="24" viewBox="0 0 22 24" fill="none" xmlns="http://www.w3.org/2000/svg">
<path fill-rule="evenodd" clip-rule="evenodd" d="M1.90624 1.90624C2.06216 1.75033 2.27362 1.66274 2.49411 1.66274H9.14507C9.36557 1.66274 9.57703 1.57515 9.73294 1.41924C9.88885 1.26333 9.97644 1.05186 9.97644 0.83137C9.97644 0.610877 9.88885 0.399415 9.73294 0.243503C9.57703 0.0875905 9.36557 0 9.14507 0H2.49411C1.83263 0 1.19824 0.262772 0.730508 0.730508C0.262772 1.19824 0 1.83263 0 2.49411V24L8.3137 18.4581L16.6274 24V12.4706C16.6274 12.2501 16.5398 12.0386 16.3839 11.8827C16.228 11.7268 16.0165 11.6392 15.796 11.6392C15.5755 11.6392 15.3641 11.7268 15.2082 11.8827C15.0523 12.0386 14.9647 12.2501 14.9647 12.4706V20.894L8.3137 16.4595L1.66274 20.894V2.49411C1.66274 2.27362 1.75033 2.06216 1.90624 1.90624ZM18.0466 0.243503C17.8907 0.0875905 17.6793 0 17.4588 0C17.2383 0 17.0268 0.0875905 16.8709 0.243503C16.715 0.399415 16.6274 0.610877 16.6274 0.83137V3.32548H14.1333C13.9128 3.32548 13.7013 3.41307 13.5454 3.56898C13.3895 3.7249 13.3019 3.93636 13.3019 4.15685C13.3019 4.37735 13.3895 4.58881 13.5454 4.74472C13.7013 4.90063 13.9128 4.98822 14.1333 4.98822H16.627V7.48205C16.627 7.70254 16.7145 7.914 16.8705 8.06991C17.0264 8.22583 17.2378 8.31342 17.4583 8.31342C17.6788 8.31342 17.8903 8.22583 18.0462 8.06991C18.2021 7.914 18.2897 7.70254 18.2897 7.48205V4.98794H20.7838C21.0043 4.98794 21.2158 4.90035 21.3717 4.74443C21.5276 4.58852 21.6152 4.37706 21.6152 4.15657C21.6152 3.93607 21.5276 3.72461 21.3717 3.5687C21.2158 3.41279 21.0043 3.3252 20.7838 3.3252H18.2901V0.83137C18.2901 0.610877 18.2026 0.399415 18.0466 0.243503Z" fill="white"/>
</svg>
