<svg width="21" height="20" viewBox="0 0 21 20" fill="none" xmlns="http://www.w3.org/2000/svg">
<path d="M19.8514 2.66675H17.7186V4.00008H19.6874V18.6667H1.31265V4.00008H3.28137V2.66675H1.14859C0.995183 2.66935 0.843787 2.70263 0.703045 2.76469C0.562303 2.82674 0.434974 2.91635 0.328329 3.02841C0.221684 3.14046 0.137813 3.27276 0.0815068 3.41775C0.0252004 3.56274 -0.00243856 3.71757 0.000168687 3.87341V18.7934C-0.00243856 18.9493 0.0252004 19.1041 0.0815068 19.2491C0.137813 19.3941 0.221684 19.5264 0.328329 19.6384C0.434974 19.7505 0.562303 19.8401 0.703045 19.9021C0.843787 19.9642 0.995183 19.9975 1.14859 20.0001H19.8514C20.0048 19.9975 20.1562 19.9642 20.297 19.9021C20.4377 19.8401 20.565 19.7505 20.6717 19.6384C20.7783 19.5264 20.8622 19.3941 20.9185 19.2491C20.9748 19.1041 21.0024 18.9493 20.9998 18.7934V3.87341C21.0024 3.71757 20.9748 3.56274 20.9185 3.41775C20.8622 3.27276 20.7783 3.14046 20.6717 3.02841C20.565 2.91635 20.4377 2.82674 20.297 2.76469C20.1562 2.70263 20.0048 2.66935 19.8514 2.66675Z" fill="white"/>
<path d="M3.9375 8H5.24998V9.33333H3.9375V8Z" fill="white"/>
<path d="M7.875 8H9.18748V9.33333H7.875V8Z" fill="white"/>
<path d="M11.8125 8H13.125V9.33333H11.8125V8Z" fill="white"/>
<path d="M15.75 8H17.0625V9.33333H15.75V8Z" fill="white"/>
<path d="M3.9375 11.3335H5.24998V12.6668H3.9375V11.3335Z" fill="white"/>
<path d="M7.875 11.3335H9.18748V12.6668H7.875V11.3335Z" fill="white"/>
<path d="M11.8125 11.3335H13.125V12.6668H11.8125V11.3335Z" fill="white"/>
<path d="M15.75 11.3335H17.0625V12.6668H15.75V11.3335Z" fill="white"/>
<path d="M3.9375 14.6665H5.24998V15.9998H3.9375V14.6665Z" fill="white"/>
<path d="M7.875 14.6665H9.18748V15.9998H7.875V14.6665Z" fill="white"/>
<path d="M11.8125 14.6665H13.125V15.9998H11.8125V14.6665Z" fill="white"/>
<path d="M15.75 14.6665H17.0625V15.9998H15.75V14.6665Z" fill="white"/>
<path d="M5.24999 5.33333C5.42403 5.33333 5.59095 5.2631 5.71402 5.13807C5.83709 5.01305 5.90623 4.84348 5.90623 4.66667V0.666667C5.90623 0.489856 5.83709 0.320286 5.71402 0.195262C5.59095 0.0702379 5.42403 0 5.24999 0C5.07594 0 4.90903 0.0702379 4.78596 0.195262C4.66289 0.320286 4.59375 0.489856 4.59375 0.666667V4.66667C4.59375 4.84348 4.66289 5.01305 4.78596 5.13807C4.90903 5.2631 5.07594 5.33333 5.24999 5.33333Z" fill="white"/>
<path d="M15.75 5.33333C15.924 5.33333 16.091 5.2631 16.214 5.13807C16.3371 5.01305 16.4062 4.84348 16.4062 4.66667V0.666667C16.4062 0.489856 16.3371 0.320286 16.214 0.195262C16.091 0.0702379 15.924 0 15.75 0C15.5759 0 15.409 0.0702379 15.286 0.195262C15.1629 0.320286 15.0938 0.489856 15.0938 0.666667V4.66667C15.0938 4.84348 15.1629 5.01305 15.286 5.13807C15.409 5.2631 15.5759 5.33333 15.75 5.33333Z" fill="white"/>
<path d="M7.21875 2.6665H13.7811V3.99984H7.21875V2.6665Z" fill="white"/>
</svg>
