<svg width="18" height="15" viewBox="0 0 18 15" fill="none" xmlns="http://www.w3.org/2000/svg">
<path d="M1.5 3H0V13.5C0 14.3325 0.67125 15 1.5 15H15V13.5H1.5V3ZM16.5 1.5H10.5L9 0H4.5C3.6675 0 3 0.6675 3 1.5V10.5C3 10.8978 3.15804 11.2794 3.43934 11.5607C3.72064 11.842 4.10218 12 4.5 12H16.5C16.8978 12 17.2794 11.842 17.5607 11.5607C17.842 11.2794 18 10.8978 18 10.5V3C18 2.1675 17.3325 1.5 16.5 1.5ZM14.955 9.75L12.75 8.4525L10.545 9.75L11.13 7.245L9.1875 5.565L11.745 5.3475L12.75 3L13.755 5.3475L16.3125 5.565L14.37 7.245L14.955 9.75Z" fill="#BBDBFE"/>
</svg>
