<svg width="13" height="13" viewBox="0 0 16 16" fill="none" xmlns="http://www.w3.org/2000/svg">
<path d="M14.8567 4.5725V14.8578H4.57151V4.5725H14.8567ZM14.8567 3.42969H4.57151C4.26842 3.42969 3.97775 3.55009 3.76343 3.76441C3.54911 3.97873 3.42871 4.26941 3.42871 4.5725V14.8578C3.42871 15.1609 3.54911 15.4516 3.76343 15.6659C3.97775 15.8802 4.26842 16.0006 4.57151 16.0006H14.8567C15.1598 16.0006 15.4505 15.8802 15.6648 15.6659C15.8791 15.4516 15.9995 15.1609 15.9995 14.8578V4.5725C15.9995 4.26941 15.8791 3.97873 15.6648 3.76441C15.4505 3.55009 15.1598 3.42969 14.8567 3.42969Z" fill="#F4F9FF"/>
<path d="M1.1428 9.1425H0V1.14281C0 0.83972 0.120402 0.549041 0.334719 0.334722C0.549035 0.120403 0.839711 0 1.1428 0H9.14241V1.14281H1.1428V9.1425Z" fill="#F4F9FF"/>
</svg>
