<svg width="13" height="15" viewBox="0 0 13 15" fill="none" xmlns="http://www.w3.org/2000/svg">
<path d="M4.33203 5.35742H5.41536V11.786H4.33203V5.35742Z" fill="#F4F9FF"/>
<path d="M7.58398 5.35742H8.66732V11.786H7.58398V5.35742Z" fill="#F4F9FF"/>
<path d="M0 2.14258V3.214H1.08333V13.9282C1.08333 14.2124 1.19747 14.4849 1.40063 14.6858C1.6038 14.8868 1.87935 14.9996 2.16667 14.9996H10.8333C11.1207 14.9996 11.3962 14.8868 11.5994 14.6858C11.8025 14.4849 11.9167 14.2124 11.9167 13.9282V3.214H13V2.14258H0ZM2.16667 13.9282V3.214H10.8333V13.9282H2.16667Z" fill="#F4F9FF"/>
<path d="M4.33203 0H8.66536V1.07142H4.33203V0Z" fill="#F4F9FF"/>
</svg>
