<svg width="18" height="20" viewBox="0 0 18 20" fill="none" xmlns="http://www.w3.org/2000/svg">
<path d="M6 7.14258H7.5V15.714H6V7.14258Z" fill="white"/>
<path d="M10.5 7.14258H12V15.714H10.5V7.14258Z" fill="white"/>
<path d="M0 2.85742V4.28598H1.5V18.5716C1.5 18.9505 1.65804 19.3139 1.93934 19.5818C2.22064 19.8497 2.60218 20.0002 3 20.0002H15C15.3978 20.0002 15.7794 19.8497 16.0607 19.5818C16.342 19.3139 16.5 18.9505 16.5 18.5716V4.28598H18V2.85742H0ZM3 18.5716V4.28598H15V18.5716H3Z" fill="white"/>
<path d="M6 0H12V1.42856H6V0Z" fill="white"/>
</svg>
