<svg width="17" height="12" viewBox="0 0 17 12" fill="none" xmlns="http://www.w3.org/2000/svg">
<path d="M14.25 3H12V0H1.5C0.675 0 0 0.675 0 1.5V9.75H1.5C1.5 10.995 2.505 12 3.75 12C4.995 12 6 10.995 6 9.75H10.5C10.5 10.995 11.505 12 12.75 12C13.995 12 15 10.995 15 9.75H16.5V6L14.25 3ZM3.75 10.875C3.1275 10.875 2.625 10.3725 2.625 9.75C2.625 9.1275 3.1275 8.625 3.75 8.625C4.3725 8.625 4.875 9.1275 4.875 9.75C4.875 10.3725 4.3725 10.875 3.75 10.875ZM13.875 4.125L15.345 6H12V4.125H13.875ZM12.75 10.875C12.1275 10.875 11.625 10.3725 11.625 9.75C11.625 9.1275 12.1275 8.625 12.75 8.625C13.3725 8.625 13.875 9.1275 13.875 9.75C13.875 10.3725 13.3725 10.875 12.75 10.875Z" fill="#BBDBFE"/>
</svg>
