<svg width="18" height="16" viewBox="0 0 18 16" fill="none" xmlns="http://www.w3.org/2000/svg">
<path fill-rule="evenodd" clip-rule="evenodd" d="M9 0C7.07143 0 5.4 0.533333 3.98571 1.6L5.01429 2.53333C6.17143 1.73333 7.45714 1.33333 9 1.33333C13.2429 1.33333 16.7143 4.93333 16.7143 9.33333H18C18 4.13333 14.0143 0 9 0ZM0 1.33333L2.05714 3.33333C0.771428 4.93333 0 7.06667 0 9.33333H1.28571C1.28571 7.33333 1.92857 5.6 3.08571 4.26667L5.91429 6.93333C5.4 7.6 5.14286 8.4 5.14286 9.33333C5.14286 11.6 6.81429 13.3333 9 13.3333C10.0286 13.3333 10.9286 12.9333 11.5714 12.2667L15.4286 16L16.3286 15.0667L0.9 0.4L0 1.33333ZM6.81429 7.86667L10.5429 11.4667C10.1571 11.7333 9.64286 12 9 12C7.58571 12 6.42857 10.8 6.42857 9.33333C6.42857 8.8 6.55714 8.26667 6.81429 7.86667ZM12.8571 10L11.5714 8.8C11.3143 7.73333 10.4143 6.8 9.25714 6.66667L7.97143 5.46667C8.35714 5.33333 8.61429 5.33333 9 5.33333C11.1857 5.33333 12.8571 7.06667 12.8571 9.33333V10Z" fill="#9DCCFF"/>
</svg>
