<svg width="18" height="13" viewBox="0 0 18 13" fill="none" xmlns="http://www.w3.org/2000/svg">
<path fill-rule="evenodd" clip-rule="evenodd" d="M0 9.1C0 4.03 3.98571 0 9 0C14.0143 0 18 4.03 18 9.1H16.7143C16.7143 4.81 13.2429 1.3 9 1.3C4.75714 1.3 1.28571 4.81 1.28571 9.1H0ZM5.14286 9.1C5.14286 6.89 6.81429 5.2 9 5.2C11.1857 5.2 12.8571 6.89 12.8571 9.1C12.8571 11.31 11.1857 13 9 13C6.81429 13 5.14286 11.31 5.14286 9.1ZM6.42857 9.1C6.42857 10.53 7.58571 11.7 9 11.7C10.4143 11.7 11.5714 10.53 11.5714 9.1C11.5714 7.67 10.4143 6.5 9 6.5C7.58571 6.5 6.42857 7.67 6.42857 9.1Z" fill="#5893D4"/>
</svg>
