<svg width="15" height="15" viewBox="0 0 15 15" fill="none" xmlns="http://www.w3.org/2000/svg">
<path d="M14.464 0H8.57135C8.42929 3.13887e-05 8.29306 0.0564996 8.19262 0.156975L0.15712 8.19247C-0.052211 8.40155 -0.0523994 8.74074 0.156712 8.95007C0.156837 8.9502 0.156994 8.95035 0.15712 8.95048L6.04981 14.8432C6.25901 15.0523 6.59811 15.0523 6.80728 14.8432L14.8428 6.80767C14.9434 6.7071 14.9998 6.57065 14.9998 6.4284V0.53571C14.9998 0.239841 14.7599 0 14.464 0ZM11.2498 4.8213C10.6581 4.8213 10.1785 4.34162 10.1785 3.74991C10.1785 3.1582 10.6581 2.67852 11.2498 2.67852C11.8416 2.67852 12.3212 3.1582 12.3212 3.74991C12.3212 4.34162 11.8416 4.8213 11.2498 4.8213Z" fill="#BBDBFE"/>
</svg>
