<svg width="35" height="35" viewBox="0 0 35 35" fill="none" xmlns="http://www.w3.org/2000/svg">
<circle cx="17.5" cy="17.5" r="17.5" fill="white"/>
<path d="M26.847 15.7414C26.9315 15.7414 27 15.8099 27 15.8944V17.5C27 18.1009 26.9441 18.6885 26.8371 19.2585C26.0089 23.686 22.1084 27.032 17.433 26.9997C12.1869 26.9636 7.98841 22.7248 8.00002 17.4786C8.01157 12.2418 12.2605 8 17.5 8C20.0669 8 22.396 9.01835 24.1059 10.6725C24.1677 10.7322 24.1693 10.8307 24.1085 10.8914L21.837 13.1629C21.7786 13.2214 21.6841 13.2229 21.6241 13.1658C20.5509 12.1443 19.0988 11.5171 17.5 11.5171C14.1983 11.5171 11.5396 14.1569 11.5172 17.4585C11.4947 20.7817 14.182 23.4829 17.5 23.4829C20.1921 23.4829 22.469 21.7044 23.2198 19.2585H17.6529C17.5684 19.2585 17.5 19.1901 17.5 19.1056V15.8943C17.5 15.8099 17.5684 15.7414 17.6529 15.7414H26.847V15.7414Z" fill="#2196F3"/>
<path d="M26.8469 15.7415H25.7C25.7845 15.7415 25.8529 15.81 25.8529 15.8945V17.5001C25.8529 18.101 25.7971 18.6886 25.6901 19.2586C24.9 23.4825 21.3135 26.7219 16.9258 26.9829C17.0937 26.9928 17.2627 26.9986 17.4328 26.9998C22.1082 27.0321 26.0088 23.6861 26.8369 19.2586C26.944 18.6886 26.9998 18.101 26.9998 17.5001V15.8944C26.9998 15.81 26.9313 15.7415 26.8469 15.7415Z" fill="#1E88E5"/>
<path d="M12.0668 14.9945L9.18164 12.9099C10.8003 9.9823 13.9194 8.00011 17.5011 8.00011C20.0681 8.00011 22.3971 9.01846 24.1071 10.6726C24.1688 10.7324 24.1704 10.8308 24.1097 10.8915L21.8382 13.163C21.7798 13.2213 21.6853 13.2232 21.6255 13.1662C20.5523 12.1445 19.1001 11.5172 17.5011 11.5172C15.0915 11.5172 13.0145 12.9416 12.0668 14.9945Z" fill="#F44336"/>
<path d="M11.2324 14.3928L12.0653 14.9946C12.9304 13.1208 14.7364 11.7712 16.8772 11.5499C16.8933 11.5481 16.9088 11.546 16.9252 11.5445C16.7368 11.5266 16.5459 11.5172 16.3528 11.5172C14.176 11.5172 12.279 12.6648 11.2324 14.3928Z" fill="#E53935"/>
<path d="M22.9604 10.6726C23.0221 10.7324 23.0237 10.8308 22.963 10.8915L21.1193 12.7352C21.2959 12.8696 21.465 13.0132 21.6254 13.166C21.6853 13.223 21.7799 13.2215 21.8383 13.163L24.1098 10.8915C24.1706 10.8308 24.1689 10.7324 24.1072 10.6726C22.3973 9.01846 20.0682 8.00011 17.5013 8.00011C17.3086 8.00011 17.1175 8.00653 16.9277 8.01785C19.2671 8.15719 21.3787 9.14255 22.9604 10.6726Z" fill="#E53935"/>
<path d="M24.4676 23.9562C22.7327 25.8283 20.2524 27.0001 17.4988 27.0001C13.7795 27.0001 10.5594 24.8627 9 21.7489L11.9456 19.7303C12.8295 21.9297 14.9829 23.483 17.4988 23.483C19.0776 23.483 20.5135 22.8713 21.5824 21.872L24.4676 23.9562Z" fill="#4CAF50"/>
<path d="M11.9467 19.7304L11.0781 20.3256C12.0869 22.205 14.0708 23.483 16.353 23.483C16.546 23.483 16.7368 23.4735 16.9251 23.4556C14.6597 23.2397 12.7624 21.7602 11.9467 19.7304Z" fill="#43A047"/>
<path d="M17.4997 27.0001C20.2534 27.0001 22.7337 25.8284 24.4686 23.9563L23.7619 23.4458C22.1329 25.473 19.6893 26.8179 16.9277 26.9828C17.117 26.9941 17.3077 27.0001 17.4997 27.0001Z" fill="#43A047"/>
<path d="M11.5171 17.5001C11.5171 18.2884 11.6696 19.0411 11.9468 19.7304L9.00121 21.7489C8.36052 20.4705 8 19.0274 8 17.5001C8 15.8352 8.42817 14.2705 9.18052 12.9099L12.0657 14.9945C11.7136 15.7564 11.5171 16.6055 11.5171 17.5001Z" fill="#FFC107"/>
<path d="M11.0791 20.3256L11.9477 19.7304C11.6705 19.0411 11.518 18.2884 11.518 17.5001C11.518 16.6055 11.7145 15.7564 12.0666 14.9945L11.2337 14.3927C10.6928 15.2858 10.3789 16.3337 10.3712 17.4586C10.3642 18.496 10.6212 19.4727 11.0791 20.3256Z" fill="#FFB300"/>
</svg>
