<svg width="10" height="11" viewBox="0 0 10 11" fill="none" xmlns="http://www.w3.org/2000/svg">
<path d="M3.14258 3.92822H3.92829V8.64251H3.14258V3.92822Z" fill="white"/>
<path d="M5.5 3.92822H6.28571V8.64251H5.5V3.92822Z" fill="white"/>
<path d="M0 1.57153V2.35725H0.785714V10.2144C0.785714 10.4228 0.868495 10.6226 1.01584 10.77C1.16319 10.9173 1.36304 11.0001 1.57143 11.0001H7.85714C8.06553 11.0001 8.26538 10.9173 8.41273 10.77C8.56008 10.6226 8.64286 10.4228 8.64286 10.2144V2.35725H9.42857V1.57153H0ZM1.57143 10.2144V2.35725H7.85714V10.2144H1.57143Z" fill="white"/>
<path d="M3.14258 0H6.28543V0.785714H3.14258V0Z" fill="white"/>
</svg>
