<svg width="13" height="9" viewBox="0 0 13 9" fill="none" xmlns="http://www.w3.org/2000/svg">
<path fill-rule="evenodd" clip-rule="evenodd" d="M13 4.5C13 4.5 10.5625 0 6.5 0C2.4375 0 0 4.5 0 4.5C0 4.5 2.4375 9 6.5 9C10.5625 9 13 4.5 13 4.5ZM0.953062 4.5C1.34592 5.10126 1.79777 5.66125 2.30181 6.17155C3.3475 7.22618 4.7775 8.18182 6.5 8.18182C8.2225 8.18182 9.65169 7.22618 10.699 6.17155C11.203 5.66125 11.6549 5.10126 12.0478 4.5C11.6549 3.89874 11.203 3.33874 10.699 2.82845C9.65169 1.77382 8.22169 0.818182 6.5 0.818182C4.7775 0.818182 3.34831 1.77382 2.301 2.82845C1.79696 3.33874 1.34511 3.89874 0.95225 4.5H0.953062Z" fill="white"/>
<path fill-rule="evenodd" clip-rule="evenodd" d="M6.5 2.45441C5.96128 2.45441 5.44462 2.66991 5.06369 3.05351C4.68276 3.43711 4.46875 3.95738 4.46875 4.49987C4.46875 5.04236 4.68276 5.56262 5.06369 5.94622C5.44462 6.32982 5.96128 6.54532 6.5 6.54532C7.03872 6.54532 7.55538 6.32982 7.93631 5.94622C8.31724 5.56262 8.53125 5.04236 8.53125 4.49987C8.53125 3.95738 8.31724 3.43711 7.93631 3.05351C7.55538 2.66991 7.03872 2.45441 6.5 2.45441ZM3.65625 4.49987C3.65625 3.74038 3.95586 3.01201 4.48917 2.47497C5.02247 1.93793 5.74579 1.63623 6.5 1.63623C7.25421 1.63623 7.97753 1.93793 8.51083 2.47497C9.04414 3.01201 9.34375 3.74038 9.34375 4.49987C9.34375 5.25935 9.04414 5.98773 8.51083 6.52476C7.97753 7.0618 7.25421 7.3635 6.5 7.3635C5.74579 7.3635 5.02247 7.0618 4.48917 6.52476C3.95586 5.98773 3.65625 5.25935 3.65625 4.49987Z" fill="white"/>
</svg>
