<svg width="26" height="25" viewBox="0 0 26 25" fill="none" xmlns="http://www.w3.org/2000/svg">
<path d="M25.2428 8.19706C24.7622 8.44181 24.2508 8.6204 23.7224 8.72798C23.9893 9.54633 24.1277 10.4011 24.1327 11.2619C24.1143 12.4967 23.8396 13.7143 23.3258 14.8374C22.8121 15.9604 22.0705 16.9644 21.1482 17.7858C21.0674 17.8608 21.0028 17.9516 20.9585 18.0526C20.9142 18.1536 20.8912 18.2627 20.8908 18.373V22.6686L17.3675 20.4243C17.2692 20.3621 17.1586 20.3221 17.0433 20.3068C16.9281 20.2915 16.8109 20.3014 16.6998 20.3358C15.46 20.7209 14.169 20.9161 12.8707 20.915C6.66061 20.915 1.60884 16.5872 1.60884 11.2619C1.60884 5.93663 6.66061 1.60884 12.8707 1.60884C14.11 1.60869 15.3427 1.78751 16.5309 2.13976C16.581 1.6057 16.7028 1.0808 16.8929 0.579184C15.586 0.198018 14.232 0.00303665 12.8707 0C5.77575 0 0 5.05177 0 11.2619C0 17.472 5.77575 22.5238 12.8707 22.5238C14.1982 22.5223 15.5191 22.3382 16.7963 21.9768L21.2448 24.8084C21.3662 24.8863 21.5064 24.9301 21.6506 24.9352C21.7948 24.9404 21.9377 24.9066 22.0644 24.8375C22.191 24.7684 22.2968 24.6665 22.3705 24.5425C22.4443 24.4185 22.4833 24.2769 22.4836 24.1327V18.7189C23.4901 17.7533 24.2933 16.5962 24.8459 15.3155C25.3985 14.0349 25.6893 12.6566 25.7013 11.2619C25.7101 10.2226 25.5554 9.18831 25.2428 8.19706Z" fill="#F4F9FF"/>
<path d="M7.23997 10.4575C7.02662 10.4575 6.82201 10.5423 6.67116 10.6931C6.5203 10.844 6.43555 11.0486 6.43555 11.2619C6.43555 11.4753 6.5203 11.6799 6.67116 11.8308C6.82201 11.9816 7.02662 12.0664 7.23997 12.0664H18.5019C18.7152 12.0664 18.9198 11.9816 19.0707 11.8308C19.2215 11.6799 19.3063 11.4753 19.3063 11.2619C19.3063 11.0486 19.2215 10.844 19.0707 10.6931C18.9198 10.5423 18.7152 10.4575 18.5019 10.4575H7.23997Z" fill="#F4F9FF"/>
<path d="M9.8552 14.4797C9.64186 14.4797 9.43725 14.5645 9.28639 14.7153C9.13553 14.8662 9.05078 15.0708 9.05078 15.2842C9.05078 15.4975 9.13553 15.7021 9.28639 15.853C9.43725 16.0038 9.64186 16.0886 9.8552 16.0886H15.8884C16.1017 16.0886 16.3063 16.0038 16.4572 15.853C16.608 15.7021 16.6928 15.4975 16.6928 15.2842C16.6928 15.0708 16.608 14.8662 16.4572 14.7153C16.3063 14.5645 16.1017 14.4797 15.8884 14.4797H9.8552Z" fill="#F4F9FF"/>
<path d="M6.66211 7.23997C6.66211 7.45331 6.74686 7.65792 6.89772 7.80878C7.04858 7.95964 7.25319 8.04439 7.46653 8.04439H18.278C18.4119 8.04196 18.5432 8.00611 18.6598 7.94009C18.7764 7.87406 18.8746 7.77995 18.9456 7.66631C18.4726 7.31865 18.0526 6.90406 17.6988 6.43555H7.46653C7.25319 6.43555 7.04858 6.5203 6.89772 6.67116C6.74686 6.82201 6.66211 7.02662 6.66211 7.23997Z" fill="#F4F9FF"/>
</svg>
