<svg width="19" height="25" viewBox="0 0 19 25" fill="none" xmlns="http://www.w3.org/2000/svg">
<path d="M18.1015 20.0678C18.0328 20.0217 17.5161 19.6473 16.9986 18.5148C16.0483 16.4352 15.8489 13.5055 15.8489 11.4141C15.8489 11.405 15.8487 11.396 15.8484 11.3869C15.838 8.62287 14.2375 6.24013 11.947 5.17105V3.53602C11.947 2.05229 10.7816 0.845215 9.34918 0.845215H9.13389C7.70144 0.845215 6.53606 2.05229 6.53606 3.53602V5.17095C4.23796 6.24348 2.63419 8.63839 2.63419 11.4141C2.63419 13.5055 2.43473 16.4351 1.48446 18.5148C0.967053 19.6473 0.450287 20.0216 0.38158 20.0678C0.0922421 20.2062 -0.0504196 20.5261 0.0161436 20.8503C0.0833456 21.1776 0.379253 21.4033 0.702397 21.4033H5.71845C5.74647 23.3914 7.31561 25 9.24156 25C11.1675 25 12.7367 23.3914 12.7647 21.4033H17.7807C18.1038 21.4033 18.3998 21.1776 18.467 20.8503C18.5335 20.5261 18.3908 20.2062 18.1015 20.0678ZM7.90478 3.53602C7.90478 2.83398 8.45617 2.26285 9.13394 2.26285H9.34923C10.027 2.26285 10.5784 2.83398 10.5784 3.53602V4.71154C10.1464 4.61921 9.69929 4.57062 9.24138 4.57062C8.7836 4.57062 8.33659 4.61917 7.90482 4.7114V3.53602H7.90478ZM9.24156 23.5824C8.07029 23.5824 7.11491 22.6097 7.08713 21.4034H11.3959C11.3682 22.6097 10.4128 23.5824 9.24156 23.5824ZM11.9972 19.9856C11.997 19.9856 2.262 19.9856 2.262 19.9856C2.38039 19.7948 2.50088 19.5788 2.62064 19.3347C3.53784 17.4644 4.00291 14.7996 4.00291 11.4141C4.00291 8.42227 6.35288 5.98825 9.24133 5.98825C12.1298 5.98825 14.4798 8.42227 14.4798 11.4165C14.4798 11.4252 14.4799 11.4339 14.4802 11.4426C14.4828 14.8144 14.9478 17.4697 15.8625 19.3347C15.9822 19.5789 16.1028 19.7948 16.2211 19.9856H11.9972Z" fill="#F4F9FF"/>
</svg>
