<svg width="15" height="15" viewBox="0 0 15 15" fill="none" xmlns="http://www.w3.org/2000/svg">
<path d="M2.72727 4.77273C3.45059 4.77273 4.14428 5.06006 4.65575 5.57153C5.16721 6.08299 5.45455 6.77668 5.45455 7.5C5.45455 8.22332 5.16721 8.91701 4.65575 9.42847C4.14428 9.93994 3.45059 10.2273 2.72727 10.2273C2.00396 10.2273 1.31026 9.93994 0.7988 9.42847C0.287337 8.91701 0 8.22332 0 7.5C0 6.77668 0.287337 6.08299 0.7988 5.57153C1.31026 5.06006 2.00396 4.77273 2.72727 4.77273ZM7.5 0C8.22332 0 8.91701 0.287337 9.42847 0.7988C9.93994 1.31026 10.2273 2.00396 10.2273 2.72727C10.2273 3.45059 9.93994 4.14428 9.42847 4.65575C8.91701 5.16721 8.22332 5.45455 7.5 5.45455C6.77668 5.45455 6.08299 5.16721 5.57153 4.65575C5.06006 4.14428 4.77273 3.45059 4.77273 2.72727C4.77273 2.00396 5.06006 1.31026 5.57153 0.7988C6.08299 0.287337 6.77668 0 7.5 0ZM7.5 9.54545C8.22332 9.54545 8.91701 9.83279 9.42847 10.3443C9.93994 10.8557 10.2273 11.5494 10.2273 12.2727C10.2273 12.996 9.93994 13.6897 9.42847 14.2012C8.91701 14.7127 8.22332 15 7.5 15C6.77668 15 6.08299 14.7127 5.57153 14.2012C5.06006 13.6897 4.77273 12.996 4.77273 12.2727C4.77273 11.5494 5.06006 10.8557 5.57153 10.3443C6.08299 9.83279 6.77668 9.54545 7.5 9.54545ZM12.2727 4.77273C12.996 4.77273 13.6897 5.06006 14.2012 5.57153C14.7127 6.08299 15 6.77668 15 7.5C15 8.22332 14.7127 8.91701 14.2012 9.42847C13.6897 9.93994 12.996 10.2273 12.2727 10.2273C11.5494 10.2273 10.8557 9.93994 10.3443 9.42847C9.83279 8.91701 9.54545 8.22332 9.54545 7.5C9.54545 6.77668 9.83279 6.08299 10.3443 5.57153C10.8557 5.06006 11.5494 4.77273 12.2727 4.77273Z" fill="#BBDBFE"/>
</svg>
