<svg width="17" height="13" viewBox="0 0 17 13" fill="none" xmlns="http://www.w3.org/2000/svg">
<path d="M13.8125 10.5625H7.3125V9.75C7.3125 8.66938 9.48188 8.125 10.5625 8.125C11.6431 8.125 13.8125 8.66938 13.8125 9.75V10.5625ZM10.5625 4.0625C10.9935 4.0625 11.4068 4.23371 11.7115 4.53845C12.0163 4.8432 12.1875 5.25652 12.1875 5.6875C12.1875 6.11848 12.0163 6.5318 11.7115 6.83655C11.4068 7.14129 10.9935 7.3125 10.5625 7.3125C10.1315 7.3125 9.7182 7.14129 9.41345 6.83655C9.10871 6.5318 8.9375 6.11848 8.9375 5.6875C8.9375 5.25652 9.10871 4.8432 9.41345 4.53845C9.7182 4.23371 10.1315 4.0625 10.5625 4.0625ZM14.625 1.625H8.125L6.5 0H1.625C0.723125 0 0 0.723125 0 1.625V11.375C0 11.806 0.171205 12.2193 0.475951 12.524C0.780698 12.8288 1.19402 13 1.625 13H14.625C15.056 13 15.4693 12.8288 15.774 12.524C16.0788 12.2193 16.25 11.806 16.25 11.375V3.25C16.25 2.81902 16.0788 2.4057 15.774 2.10095C15.4693 1.7962 15.056 1.625 14.625 1.625Z" fill="#BBDBFE"/>
</svg>
