<svg width="18" height="15" viewBox="0 0 18 15" fill="none" xmlns="http://www.w3.org/2000/svg">
<path d="M5.5333 10.0001H14.5667C14.7904 10.0001 14.9866 9.85215 15.0472 9.6373L17.0473 2.63722C17.0902 2.48631 17.0608 2.3242 16.9662 2.19881C16.8714 2.07381 16.724 1.99999 16.5667 1.99999H4.37901L4.02159 0.391664C3.97081 0.162629 3.76768 0 3.53331 0H0.499997C0.223696 0 0 0.223696 0 0.499997C0 0.776427 0.223696 0.999993 0.499997 0.999993H3.13201L4.9376 9.12494C4.40635 9.35593 4.03331 9.8847 4.03331 10.5001C4.03331 11.3271 4.70622 12 5.5333 12H14.5667C14.8431 12 15.0667 11.7765 15.0667 11.5001C15.0667 11.2238 14.8431 11.0001 14.5667 11.0001H5.5333C5.25791 11.0001 5.0333 10.776 5.0333 10.5001C5.0333 10.2241 5.25791 10.0001 5.5333 10.0001Z" fill="#BBDBFE"/>
<path d="M5.0332 13.5C5.0332 14.3272 5.70612 15 6.53332 15C7.3604 15 8.03331 14.3272 8.03331 13.5C8.03331 12.6729 7.3604 12 6.53332 12C5.70612 12 5.0332 12.6729 5.0332 13.5Z" fill="#BBDBFE"/>
<path d="M12.0664 13.5C12.0664 14.3272 12.7393 15 13.5664 15C14.3936 15 15.0664 14.3272 15.0664 13.5C15.0664 12.6729 14.3936 12 13.5664 12C12.7393 12 12.0664 12.6729 12.0664 13.5Z" fill="#BBDBFE"/>
</svg>
