<svg width="16" height="16" viewBox="0 0 16 16" fill="none" xmlns="http://www.w3.org/2000/svg">
<path d="M7.35569 9.59822V9.23702C7.35569 8.82315 7.43002 8.47888 7.57869 8.20422C7.72735 7.92955 7.98751 7.64549 8.35917 7.35201C8.80145 6.99834 9.08577 6.72368 9.21214 6.52803C9.34222 6.33238 9.40726 6.0991 9.40726 5.8282C9.40726 5.51215 9.30319 5.26947 9.09506 5.10016C8.88693 4.93085 8.58775 4.84619 8.1975 4.84619C7.84442 4.84619 7.51736 4.89699 7.21632 4.99857C6.91527 5.10016 6.62166 5.22244 6.33548 5.36542L5.86719 4.37212C6.62166 3.94696 7.43002 3.73438 8.29227 3.73438C9.02073 3.73438 9.59866 3.91497 10.0261 4.27617C10.4535 4.63737 10.6672 5.1359 10.6672 5.77176C10.6672 6.05395 10.6263 6.30604 10.5445 6.52803C10.4628 6.74625 10.3383 6.95507 10.171 7.15448C10.0075 7.35389 9.72317 7.61351 9.31806 7.93332C8.97241 8.20798 8.74013 8.43561 8.62119 8.61621C8.50598 8.79681 8.44837 9.03949 8.44837 9.34425V9.59822H7.35569ZM7.12712 11.3986C7.12712 10.8304 7.40029 10.5464 7.94663 10.5464C8.21423 10.5464 8.41864 10.6216 8.55987 10.7721C8.7011 10.9189 8.77172 11.1277 8.77172 11.3986C8.77172 11.6657 8.69924 11.8783 8.5543 12.0363C8.41306 12.1906 8.21051 12.2677 7.94663 12.2677C7.68275 12.2677 7.4802 12.1925 7.33896 12.042C7.19773 11.8877 7.12712 11.6732 7.12712 11.3986Z" fill="#BBDBFE"/>
<circle cx="8" cy="8" r="7.5" stroke="#BBDBFE"/>
</svg>
