<svg width="15" height="15" viewBox="0 0 15 15" fill="none" xmlns="http://www.w3.org/2000/svg">
<path d="M14.5312 15H12.0312C11.7725 15 11.5625 14.79 11.5625 14.5312V13.75H9.6875V14.5312C9.6875 14.79 9.4775 15 9.21875 15H5.78125C5.5225 15 5.3125 14.79 5.3125 14.5312V13.75H3.4375V14.5312C3.4375 14.79 3.2275 15 2.96875 15H0.46875C0.21 15 0 14.79 0 14.5312V12.5H15V14.5312C15 14.79 14.79 15 14.5312 15Z" fill="#BBDBFE"/>
<path d="M10 0H8.125V1.25C8.125 1.595 7.845 1.875 7.5 1.875C7.155 1.875 6.875 1.595 6.875 1.25V0H5C4.655 0 4.375 0.28 4.375 0.625V4.375C4.375 4.72 4.655 5 5 5H10C10.345 5 10.625 4.72 10.625 4.375V0.625C10.625 0.28 10.345 0 10 0Z" fill="#BBDBFE"/>
<path d="M6.25 6.25H4.375V7.5C4.375 7.845 4.095 8.125 3.75 8.125C3.405 8.125 3.125 7.845 3.125 7.5V6.25H1.25C0.905 6.25 0.625 6.53 0.625 6.875V10.625C0.625 10.97 0.905 11.25 1.25 11.25H6.25C6.595 11.25 6.875 10.97 6.875 10.625V6.875C6.875 6.53 6.595 6.25 6.25 6.25Z" fill="#BBDBFE"/>
<path d="M13.75 6.25H11.875V7.5C11.875 7.845 11.595 8.125 11.25 8.125C10.905 8.125 10.625 7.845 10.625 7.5V6.25H8.75C8.405 6.25 8.125 6.53 8.125 6.875V10.625C8.125 10.97 8.405 11.25 8.75 11.25H13.75C14.095 11.25 14.375 10.97 14.375 10.625V6.875C14.375 6.53 14.095 6.25 13.75 6.25Z" fill="#BBDBFE"/>
</svg>
