<svg width="453" height="131" viewBox="0 0 453 131" fill="none" xmlns="http://www.w3.org/2000/svg">
<g opacity="0.6">
<rect opacity="0.2" width="18" height="18" transform="matrix(-1 0 0 1 137 88)" fill="white"/>
<rect opacity="0.2" width="18" height="18" transform="matrix(-1 0 0 1 230 92)" fill="white"/>
<rect opacity="0.2" width="18" height="18" transform="matrix(-1 0 0 1 453 57)" fill="white"/>
<rect opacity="0.3" width="15" height="15" transform="matrix(-1 0 0 1 294 52)" fill="white"/>
<rect opacity="0.1" width="15" height="15" transform="matrix(-1 0 0 1 350 93)" fill="white"/>
<rect opacity="0.1" width="15" height="15" transform="matrix(-1 0 0 1 380 0)" fill="white"/>
<rect opacity="0.1" width="10" height="10" transform="matrix(-1 0 0 1 67 121)" fill="white"/>
<rect opacity="0.3" width="10" height="10" transform="matrix(-1 0 0 1 10 107)" fill="white"/>
<rect opacity="0.1" width="10" height="10" transform="matrix(-1 0 0 1 189 70)" fill="white"/>
</g>
</svg>
