<svg width="493" height="120" viewBox="0 0 493 120" fill="none" xmlns="http://www.w3.org/2000/svg">
<rect opacity="0.8" x="124.244" y="38.046" width="24.86" height="24.86" fill="white"/>
<rect opacity="0.8" x="-1.71289" y="0.756104" width="24.86" height="24.86" fill="white"/>
<rect opacity="0.8" x="196.338" y="85.2799" width="24.86" height="24.86" fill="white"/>
<rect opacity="0.8" x="38.0625" y="55.448" width="14.916" height="14.916" fill="white"/>
<rect opacity="0.2" x="83.6387" y="25.6161" width="24.86" height="24.86" fill="white"/>
<rect opacity="0.2" x="137.502" y="85.2799" width="14.916" height="14.916" fill="white"/>
<rect opacity="0.2" x="319.809" y="85.2799" width="24.86" height="24.86" fill="white"/>
<rect opacity="0.2" x="375.33" y="110.14" width="24.86" height="24.86" fill="white"/>
<rect opacity="0.2" x="443.279" y="80.308" width="14.916" height="14.916" fill="white"/>
<rect opacity="0.1" x="484.713" y="105.997" width="8.28666" height="8.28666" fill="white"/>
<rect opacity="0.5" x="161.533" y="13.186" width="24.86" height="24.86" fill="white"/>
<rect opacity="0.5" x="263.461" y="103.511" width="24.86" height="24.86" fill="white"/>
<rect opacity="0.5" x="201.309" y="48.8187" width="14.916" height="14.916" fill="white"/>
<rect opacity="0.5" x="61.2656" y="102.682" width="14.916" height="14.916" fill="white"/>
<rect opacity="0.2" x="-10" y="90.252" width="24.86" height="24.86" fill="white"/>
</svg>
