<svg width="493" height="120" viewBox="0 0 493 120" fill="none" xmlns="http://www.w3.org/2000/svg">
<rect opacity="0.8" width="24.86" height="24.86" transform="matrix(-1 0 0 1 368.756 38.046)" fill="white"/>
<rect opacity="0.8" width="24.86" height="24.86" transform="matrix(-1 0 0 1 494.713 0.756104)" fill="white"/>
<rect opacity="0.8" width="24.86" height="24.86" transform="matrix(-1 0 0 1 296.662 85.2799)" fill="white"/>
<rect opacity="0.8" width="14.916" height="14.916" transform="matrix(-1 0 0 1 454.938 55.448)" fill="white"/>
<rect opacity="0.2" width="24.86" height="24.86" transform="matrix(-1 0 0 1 409.361 25.6161)" fill="white"/>
<rect opacity="0.2" width="14.916" height="14.916" transform="matrix(-1 0 0 1 355.498 85.2799)" fill="white"/>
<rect opacity="0.2" width="24.86" height="24.86" transform="matrix(-1 0 0 1 173.191 85.2799)" fill="white"/>
<rect opacity="0.2" width="24.86" height="24.86" transform="matrix(-1 0 0 1 117.67 110.14)" fill="white"/>
<rect opacity="0.2" width="14.916" height="14.916" transform="matrix(-1 0 0 1 49.7207 80.308)" fill="white"/>
<rect opacity="0.1" width="8.28666" height="8.28666" transform="matrix(-1 0 0 1 8.28711 105.997)" fill="white"/>
<rect opacity="0.5" width="24.86" height="24.86" transform="matrix(-1 0 0 1 331.467 13.186)" fill="white"/>
<rect opacity="0.5" width="24.86" height="24.86" transform="matrix(-1 0 0 1 229.539 103.511)" fill="white"/>
<rect opacity="0.5" width="14.916" height="14.916" transform="matrix(-1 0 0 1 291.691 48.8187)" fill="white"/>
<rect opacity="0.5" width="14.916" height="14.916" transform="matrix(-1 0 0 1 431.734 102.682)" fill="white"/>
<rect opacity="0.2" width="24.86" height="24.86" transform="matrix(-1 0 0 1 503 90.252)" fill="white"/>
</svg>
