<svg width="15" height="15" viewBox="0 0 15 15" fill="none" xmlns="http://www.w3.org/2000/svg">
<circle cx="7.5" cy="7.5" r="7.5" fill="#FF9F2F"/>
<path d="M5.13576 8.46642L8.92315 12.3602C9.01075 12.4503 9.12769 12.5 9.25237 12.5C9.37706 12.5 9.49399 12.4503 9.58159 12.3602L9.86051 12.0735C10.042 11.8867 10.042 11.5831 9.86051 11.3966L6.68014 8.12681L9.86404 4.85341C9.95163 4.76328 10 4.64313 10 4.51501C10 4.38675 9.95163 4.2666 9.86404 4.1764L9.58512 3.88978C9.49745 3.79965 9.38059 3.75 9.2559 3.75C9.13122 3.75 9.01428 3.79965 8.92668 3.88978L5.13576 7.78713C5.04795 7.87755 4.99972 7.99827 5 8.1266C4.99972 8.25543 5.04795 8.37608 5.13576 8.46642Z" fill="white"/>
</svg>
