<svg width="40" height="40" viewBox="0 0 40 40" fill="none" xmlns="http://www.w3.org/2000/svg">
<path d="M20 0C9.158 0 0 9.158 0 20C0 30.842 9.158 40 20 40C30.842 40 40 30.842 40 20C40 9.158 30.842 0 20 0ZM20 10C23.454 10 26 12.544 26 16C26 19.456 23.454 22 20 22C16.548 22 14 19.456 14 16C14 12.544 16.548 10 20 10ZM9.788 29.544C11.582 26.904 14.574 25.144 18 25.144H22C25.428 25.144 28.418 26.904 30.212 29.544C27.656 32.28 24.03 34 20 34C15.97 34 12.344 32.28 9.788 29.544Z" fill="#BBDBFE"/>
<circle cx="32.5" cy="32.5" r="7.5" fill="#FF9F2F"/>
<path d="M30.1358 33.4664L33.9232 37.3602C34.0108 37.4503 34.1277 37.5 34.2524 37.5C34.3771 37.5 34.494 37.4503 34.5816 37.3602L34.8605 37.0735C35.042 36.8867 35.042 36.5831 34.8605 36.3966L31.6801 33.1268L34.864 29.8534C34.9516 29.7633 35 29.6431 35 29.515C35 29.3868 34.9516 29.2666 34.864 29.1764L34.5851 28.8898C34.4975 28.7997 34.3806 28.75 34.2559 28.75C34.1312 28.75 34.0143 28.7997 33.9267 28.8898L30.1358 32.7871C30.048 32.8775 29.9997 32.9983 30 33.1266C29.9997 33.2554 30.048 33.3761 30.1358 33.4664Z" fill="white"/>
</svg>
